<svg xmlns="http://www.w3.org/2000/svg" xmlns:xlink="http://www.w3.org/1999/xlink" width="15" height="15" viewBox="0 0 15 15">
  <defs>
    <clipPath id="clip-path">
      <rect id="Rectangle_579" data-name="Rectangle 579" width="15" height="15" fill="#00b1a1"/>
    </clipPath>
  </defs>
  <g id="Mask_Group_97" data-name="Mask Group 97" clip-path="url(#clip-path)">
    <path id="rotate-right" d="M1.263,8.047A6.269,6.269,0,1,0,3.038,3.125H4.989a.625.625,0,0,1,.625.625h0a.625.625,0,0,1-.625.625H2.4A1.161,1.161,0,0,1,1.239,3.214V.625A.625.625,0,0,1,1.864,0h0a.625.625,0,0,1,.625.625v1.3A7.49,7.49,0,1,1,.02,8.187.629.629,0,0,1,.645,7.5h0a.614.614,0,0,1,.617.547Z" transform="translate(0.006)" fill="#00b1a1"/>
  </g>
</svg>
