<svg xmlns="http://www.w3.org/2000/svg" width="315" height="140" viewBox="0 0 315 140">
  <g id="Group_1134" data-name="Group 1134" transform="translate(0 0)">
    <path id="Path_3052" data-name="Path 3052" d="M283.935,450.967c-1.083,8.569-5.065,16.409-9.313,23.961-.14.257-.285.51-.433.767H230.035c-.893-.234-1.774-.491-2.652-.767A48.075,48.075,0,0,1,213.442,468c-16.244-11.819-22.495-34.153-19.671-54.165,1.756-12.433,7.159-25.127,17.68-31.824a26.325,26.325,0,0,1,19.086-3.377c.167.031.335.069.505.1a19.7,19.7,0,0,1,13.193,9.367c5.016,9,2.029,20.146-.437,30.162s-3.792,22,3.344,29.391a19.029,19.029,0,0,1,5.6-20.093,18.671,18.671,0,0,1,15.571-3.8c.517.111,1.026.238,1.527.391a16.859,16.859,0,0,1,3.484,1.474C281.739,430.376,285.147,441.309,283.935,450.967Z" transform="translate(-190.222 -335.696)" fill="#e6e6e6"/>
    <path id="Path_3053" data-name="Path 3053" d="M297.857,475.756c1.223.288,2.451.541,3.686.767h-6.676c-.874-.238-1.744-.491-2.607-.767q-2.844-.9-5.6-2.061a50.268,50.268,0,0,1-19.3-14.053,39.737,39.737,0,0,1-6.087-10.043,45.981,45.981,0,0,1-3.116-12.851c-.931-9.056.019-18.362,1.793-27.257a114.545,114.545,0,0,1,8.8-26.659q.724-1.525,1.5-3.032a.588.588,0,0,1,.391-.338.67.67,0,0,1,.505.1.812.812,0,0,1,.315,1.067,113.164,113.164,0,0,0-9.34,25.7,99.844,99.844,0,0,0-2.778,26.747c.372,8.358,2.535,16.578,7.44,23.412A46.873,46.873,0,0,0,284.292,471a63.843,63.843,0,0,0,13.565,4.758Z" transform="translate(-230.324 -336.524)" fill="#fff"/>
    <path id="Path_3054" data-name="Path 3054" d="M382.019,549.016h-1.968c-.22-.253-.433-.51-.642-.768a42.556,42.556,0,0,1-8.831-19.057,41.709,41.709,0,0,1,3.53-25.73,42.387,42.387,0,0,1,3.815-6.378c.517.111,1.026.238,1.527.391a40.294,40.294,0,0,0,1.889,50.773C381.559,548.505,381.787,548.763,382.019,549.016Z" transform="translate(-299.834 -409.016)" fill="#fff"/>
    <path id="Path_3055" data-name="Path 3055" d="M868.327,584.525a17.683,17.683,0,0,0,2.458,6.324c.037.068.075.135.114.2h11.653c.236-.062.468-.13.7-.2a12.687,12.687,0,0,0,3.679-1.828c4.287-3.119,5.937-9.014,5.192-14.3-.463-3.281-1.889-6.632-4.666-8.4a6.948,6.948,0,0,0-5.037-.891l-.133.027a5.2,5.2,0,0,0-3.482,2.472c-1.324,2.375-.535,5.317.115,7.96s1,5.807-.882,7.757a4.888,4.888,0,0,0-.965-4.8,4.776,4.776,0,0,0-4.621-1.5c-.136.029-.271.063-.4.1a4.452,4.452,0,0,0-.92.389C868.906,579.09,868.007,581.976,868.327,584.525Z" transform="translate(-608.83 -451.051)" fill="#e6e6e6"/>
    <path id="Path_3056" data-name="Path 3056" d="M885.026,591.07c-.323.076-.647.143-.973.2h1.762c.231-.063.46-.13.688-.2q.751-.237,1.478-.544a13.267,13.267,0,0,0,5.093-3.709,10.487,10.487,0,0,0,1.607-2.65,12.135,12.135,0,0,0,.822-3.392,24.354,24.354,0,0,0-.473-7.194,30.229,30.229,0,0,0-2.323-7.036q-.191-.4-.4-.8a.155.155,0,0,0-.1-.089.177.177,0,0,0-.133.027.214.214,0,0,0-.083.282,29.864,29.864,0,0,1,2.465,6.781,26.35,26.35,0,0,1,.733,7.059,11.339,11.339,0,0,1-1.964,6.179,12.371,12.371,0,0,1-4.621,3.829,16.844,16.844,0,0,1-3.58,1.256Z" transform="translate(-618.62 -451.273)" fill="#fff"/>
    <ellipse id="Ellipse_60" data-name="Ellipse 60" cx="21.374" cy="21.585" rx="21.374" ry="21.585" transform="translate(206.711 96.253)" fill="#2f2e41"/>
    <path id="Path_3057" data-name="Path 3057" d="M876.437,610.4h.52c.058-.067.114-.135.169-.2a11.231,11.231,0,0,0,2.331-5.029,11.008,11.008,0,0,0-.932-6.791,11.189,11.189,0,0,0-1.007-1.683c-.136.029-.271.063-.4.1a10.635,10.635,0,0,1-.5,13.4Q876.529,610.3,876.437,610.4Z" transform="translate(-613.898 -470.405)" fill="#fff"/>
    <ellipse id="Ellipse_62" data-name="Ellipse 62" cx="24.603" cy="24.847" rx="24.603" ry="24.847" transform="translate(95.568 89.73)" fill="#2f2e41"/>
    <path id="Path_3058" data-name="Path 3058" d="M531.865,456.26h-36.47l-.387-11.325a3.416,3.416,0,0,1,1.09-2.624,3.345,3.345,0,0,1,2.683-.868L520,444.068h0a11.949,11.949,0,0,1,11.858,12Z" transform="translate(-377.401 -374.712)" fill="#00b1a1"/>
    <path id="Path_3059" data-name="Path 3059" d="M503.522,375.414H478.086a2.588,2.588,0,0,0-2.576,2.6V403.7a2.588,2.588,0,0,0,2.576,2.6h25.436a2.588,2.588,0,0,0,2.576-2.6V378.015A2.588,2.588,0,0,0,503.522,375.414Z" transform="translate(-365.313 -334.036)" fill="#ccc"/>
    <path id="Path_3060" data-name="Path 3060" d="M507.732,408.987l-12.01,2.362a2.741,2.741,0,0,1-3.21-2.185l-.923-4.788a2.766,2.766,0,0,1,2.163-3.241l12.01-2.362a2.741,2.741,0,0,1,3.209,2.185l.923,4.788A2.766,2.766,0,0,1,507.732,408.987Z" transform="translate(-375.252 -348.4)" fill="#3f3d56"/>
    <path id="Path_3061" data-name="Path 3061" d="M511.624,408.662l-9.165,1.8a.65.65,0,0,1-.246-1.277l9.165-1.8a.65.65,0,0,1,.246,1.277Z" transform="translate(-381.546 -353.731)" fill="#fff"/>
    <path id="Path_3062" data-name="Path 3062" d="M514.156,415.618l-4.741.932a.65.65,0,0,1-.246-1.277l4.741-.932a.65.65,0,0,1,.246,1.277Z" transform="translate(-385.859 -358.018)" fill="#fff"/>
    <path id="Path_3063" data-name="Path 3063" d="M506.1,378.015v3.414H475.51v-3.414a2.588,2.588,0,0,1,2.576-2.6h25.436A2.588,2.588,0,0,1,506.1,378.015Z" transform="translate(-365.313 -334.036)" fill="#b3b3b3"/>
    <path id="Path_3064" data-name="Path 3064" d="M647.723,369.592a4.108,4.108,0,0,0-2.322-2.582,4.046,4.046,0,0,0-3.451.14l-34.995-12.68-1.541,8.829,34.883,9.688a4.083,4.083,0,0,0,5.206,1.634,4.159,4.159,0,0,0,2.22-5.028Z" transform="translate(-445.857 -321.129)" fill="#ffb8b8"/>
    <path id="Path_3065" data-name="Path 3065" d="M647.723,369.592a4.108,4.108,0,0,0-2.322-2.582,4.046,4.046,0,0,0-3.451.14l-34.995-12.68-1.541,8.829,34.883,9.688a4.083,4.083,0,0,0,5.206,1.634,4.159,4.159,0,0,0,2.22-5.028Z" transform="translate(-445.857 -321.129)" opacity="0.2"/>
    <path id="Path_3066" data-name="Path 3066" d="M597.757,350.921l-3.3,8.719a1.839,1.839,0,0,1-1.088,1.078,1.814,1.814,0,0,1-1.519-.128l-8.031-4.565a5.149,5.149,0,0,1-2.911-6.638,5.068,5.068,0,0,1,6.573-2.94l8.968,2.009a1.832,1.832,0,0,1,1.215.929,1.865,1.865,0,0,1,.1,1.536Z" transform="translate(-430.447 -315.972)" fill="#00b1a1"/>
    <path id="Path_3067" data-name="Path 3067" d="M703.549,414.914,691.01,420.67l1.646,6.259a98.3,98.3,0,0,1,2.485,37.089h0l9.168,1.934,7.6-19.571-2.66-22.257Z" transform="translate(-498.928 -358.378)" fill="#00b1a1"/>
    <path id="Path_3068" data-name="Path 3068" d="M763.829,490.414c-8.239,0-14.953,6.049-15.278,13.623h30.557C778.782,496.463,772.068,490.414,763.829,490.414Z" transform="translate(-534.605 -404.906)" fill="#3f3d56"/>
    <path id="Path_3069" data-name="Path 3069" d="M567.206,443.838c-.429-34.191-19.71-31.045-19.71-31.045s.361,10.642.534,10.973c12.287,23.477-7.991,51-33.8,45.937q-.73-.143-1.4-.291A13.26,13.26,0,0,1,502.5,454.538c2.543-20.621-10.1-20.256-10.1-20.256H473.907l-9.6-8.729a2.772,2.772,0,0,0-2.538-.641,2.8,2.8,0,0,0-1.949,1.762l-1.235,3.387s-18.239,1.919-16.719,19.955H447.5a11.613,11.613,0,0,0,.061,1.535l42.083-.346a4.627,4.627,0,0,1,4.654,4.49,4.532,4.532,0,0,1-1.354,3.254,4.442,4.442,0,0,1-3.26,1.272l-6.785-.228c-2.09,9.4,3.04,15.733,8.692,19.715a31.377,31.377,0,0,0,18.094,5.612h18.432c23.938,0,28.118-20.338,28.118-20.338C568.775,459.609,567.206,443.838,567.206,443.838Z" transform="translate(-344.395 -357.024)" fill="#3f3d56"/>
    <ellipse id="Ellipse_61" data-name="Ellipse 61" cx="5.239" cy="5.291" rx="5.239" ry="5.291" transform="translate(222.846 112.548)" fill="#fff"/>
    <ellipse id="Ellipse_63" data-name="Ellipse 63" cx="6.03" cy="6.09" rx="6.03" ry="6.09" transform="translate(114.141 108.487)" fill="#fff"/>
    <path id="Path_3070" data-name="Path 3070" d="M683.219,395.044l-4.512-12.376a5.248,5.248,0,0,1,3.073-6.72l12.934-4.809a9.094,9.094,0,0,1,11.708,5.459,9.273,9.273,0,0,1-2.852,10.37,9.024,9.024,0,0,1-2.554,1.454Z" transform="translate(-491.101 -331.051)" fill="#3f3d56"/>
    <path id="Path_3071" data-name="Path 3071" d="M733.842,380.094a9.071,9.071,0,0,1-3.344,7.038,11.423,11.423,0,0,1-7.379-6.173,11.611,11.611,0,0,1-.107-9.676,8.865,8.865,0,0,1,7.5,1.79A9.054,9.054,0,0,1,733.842,380.094Z" transform="translate(-518.149 -331.363)" fill="#00b1a1"/>
    <ellipse id="Ellipse_64" data-name="Ellipse 64" cx="5.32" cy="6.524" rx="5.32" ry="6.524" transform="translate(95.378 82.439)" fill="#00b1a1"/>
    <path id="Path_3072" data-name="Path 3072" d="M450.07,272.41h4.659l2.216-12.2h-6.876Z" transform="translate(-279.054 -160.356)" fill="#ffb8b8"/>
    <path id="Path_3073" data-name="Path 3073" d="M632.444,555.587h9.174a5.876,5.876,0,0,1,5.846,5.9v.192H632.444Z" transform="translate(-462.616 -445.069)" fill="#2f2e41"/>
    <path id="Path_3074" data-name="Path 3074" d="M598.442,475.194q-.081,0-.163-.008l-6.447-.474a1.708,1.708,0,0,1-1.288-.8,1.741,1.741,0,0,1-.16-1.517l8.628-19.576a1.355,1.355,0,0,0-.075-1.074,1.314,1.314,0,0,0-.84-.675c-4.057-1.071-14.466-3.923-23.477-7.26-3.861-1.43-6.292-3.5-7.227-6.141a8.74,8.74,0,0,1,.669-6.8l.061-.1,8.479.778,9.192.79,20.144,10.909a7.744,7.744,0,0,1,3.351,9.894L600,474.171A1.708,1.708,0,0,1,598.442,475.194Z" transform="translate(-422.019 -368.148)" fill="#2f2e41"/>
    <ellipse id="Ellipse_65" data-name="Ellipse 65" cx="9.333" cy="9.425" rx="9.333" ry="9.425" transform="translate(146.725 5.817)" fill="#ffb8b8"/>
    <path id="Path_3075" data-name="Path 3075" d="M443.07,275.41h4.659l2.216-12.2h-6.876Z" transform="translate(-274.713 -162.204)" fill="#ffb8b8"/>
    <path id="Path_3076" data-name="Path 3076" d="M625.444,558.587h9.174a5.876,5.876,0,0,1,5.846,5.9v.192H625.444Z" transform="translate(-458.276 -446.918)" fill="#2f2e41"/>
    <path id="Path_3077" data-name="Path 3077" d="M591.442,478.194q-.081,0-.163-.008l-6.447-.474a1.708,1.708,0,0,1-1.288-.8,1.742,1.742,0,0,1-.16-1.517l8.628-19.576a1.354,1.354,0,0,0-.075-1.074,1.314,1.314,0,0,0-.84-.675c-4.057-1.071-14.466-3.923-23.477-7.26-3.861-1.43-6.292-3.5-7.227-6.141a8.74,8.74,0,0,1,.669-6.8l.061-.1,8.479.778,9.192.79,20.144,10.909a7.744,7.744,0,0,1,3.351,9.895L593,477.171A1.708,1.708,0,0,1,591.442,478.194Z" transform="translate(-417.678 -369.997)" fill="#2f2e41"/>
    <path id="Path_3078" data-name="Path 3078" d="M578.669,340.248l-9.879-3.454s-6.2,4.812-3.223,16.75a29.827,29.827,0,0,1-1.292,18.543,19.209,19.209,0,0,1-1,2.123s11.019,13.431,21.279,3.454l-3.99-19.379S586.839,345.428,578.669,340.248Z" transform="translate(-419.733 -310.236)" fill="#00b1a1"/>
    <path id="Path_3079" data-name="Path 3079" d="M574.9,292.573c-1.328-2.008-2.377-4.792-.914-6.7,1.444-1.886,4.291-1.608,6.5-2.442a7.449,7.449,0,0,0,4.308-8.088,9.564,9.564,0,0,0-6.256-7.094,13.422,13.422,0,0,0-9.626.529,14.776,14.776,0,0,0-8.282,8.472,11.5,11.5,0,0,0,2.162,11.447c2.988,3.177,7.678,4.023,12.016,3.972" transform="translate(-417.685 -267.586)" fill="#2f2e41"/>
    <path id="Path_3080" data-name="Path 3080" d="M505.972,279.821c-1.674,1.376-4.227.765-6.024-.443s-3.255-2.927-5.2-3.874c-3.427-1.669-7.571-.56-10.906,1.289s-6.292,4.4-9.815,5.854-8.019,1.523-10.687-1.217a9.935,9.935,0,0,0,3.109,10.912,9.7,9.7,0,0,0,11.219.743c3.86-2.375,5.993-7.354,10.322-8.665,2.4-.725,4.969-.141,7.39.492s4.946,1.316,7.39.778,4.73-2.756,4.419-5.263Z" transform="translate(-357.437 -271.961)" fill="#2f2e41"/>
    <path id="Path_3081" data-name="Path 3081" d="M645.774,376.935a4.094,4.094,0,0,0-2.62-2.273,4.049,4.049,0,0,0-3.408.569l-36.276-8.223-.451,8.953,35.8,5.267a4.077,4.077,0,0,0,5.366.973,4.167,4.167,0,0,0,1.589-5.266Z" transform="translate(-444.372 -328.856)" fill="#ffb8b8"/>
    <path id="Path_3082" data-name="Path 3082" d="M593.1,363.831l-2.214,9.064a1.845,1.845,0,0,1-.948,1.205,1.814,1.814,0,0,1-1.523.062l-8.528-3.529a5.137,5.137,0,0,1-3.7-6.225,5.08,5.08,0,0,1,6.164-3.736l9.145.876a1.827,1.827,0,0,1,1.319.771A1.863,1.863,0,0,1,593.1,363.831Z" transform="translate(-427.641 -324.856)" fill="#00b1a1"/>
    <ellipse id="Ellipse_66" data-name="Ellipse 66" cx="2.66" cy="2.686" rx="2.66" ry="2.686" transform="translate(194.551 49.821)" fill="#00b1a1"/>
    <path id="Path_3083" data-name="Path 3083" d="M500.5,630.8a.383.383,0,0,1-.38.384H185.88a.384.384,0,0,1,0-.767H500.12A.383.383,0,0,1,500.5,630.8Z" transform="translate(-185.5 -491.182)" fill="#3f3d56"/>
  </g>
</svg>
